<?xml version="1.0" encoding="UTF-8" standalone="no"?>
<!DOCTYPE svg PUBLIC "-//W3C//DTD SVG 1.1//EN" "http://www.w3.org/Graphics/SVG/1.1/DTD/svg11.dtd">
<svg xmlns="http://www.w3.org/2000/svg" xmlns:xlink="http://www.w3.org/1999/xlink" version="1.1" width="841.89pt" height="595.28pt" viewBox="0 0 841.89 595.28">
<g enable-background="new">
<g id="Layer-1" data-name="Layer 1">
<clipPath id="cp0">
<path transform="matrix(1,0,0,-1,0,595.28)" d="M 296.428 71.066 L 590.893 71.066 L 590.893 539.669 L 296.428 539.669 Z "/>
</clipPath>
<g clip-path="url(#cp0)">
<path transform="matrix(1,0,0,-1,590.7611,296.31053)" d="M 0 0 C -16.248 12.391 -23.894 -.165 -34.045 .594 C -42.779 1.416 -50.952 15.423 -57.577 12.028 C -70.398 5.602 -52.502 -17.336 -44.592 -22.181 C -37.802 -26.334 -29.069 -29.994 -26.926 -31.047 C -16.743 -35.794 -12.655 -43.076 -11.403 -54.512 C -10.974 -57.082 -11.403 -62.952 -11.963 -65.85 C -16.578 -85.79 -51.512 -103.752 -71.551 -90.106 C -80.911 -83.68 -89.512 -75.31 -92.545 -60.545 C -97.95 -34.442 -116.77 -15.228 -122.833 10.446 C -126.525 26.035 -129.261 42.384 -133.28 58.071 C -137.368 74.187 -141.651 90.205 -144.948 104.904 C -148.144 118.515 -154.704 139.047 -159.317 151.372 C -178.432 201.337 -187.068 197.648 -187.068 197.648 C -187.068 197.648 -180.114 183.838 -154.736 61.465 C -153.814 56.488 -144.552 2.702 -137.862 -15.095 C -135.489 -21.49 -131.303 -35.068 -128.501 -41.099 C -120.395 -58.666 -99.202 -85.229 -97.883 -109.189 C -96.995 -123.032 -95.446 -134.437 -95.017 -144.949 C -94.819 -148.047 -93.534 -160.504 -91.49 -166.009 C -86.25 -180.675 -44.492 -227.904 .133 -227.904 L .133 -192.145 C -44.064 -192.145 -85.822 -167.328 -86.678 -164.725 C -87.371 -163.569 -84.536 -146.63 -81.505 -139.249 C -75.803 -124.68 -64.828 -111.233 -45.547 -109.817 C -24.059 -108.169 -11.172 -114.529 .133 -114.529 Z "/>
<path transform="matrix(1,0,0,-1,398.7231,166.67533)" d="M 0 0 C -1.647 -26.859 -43.009 -63.378 -55.995 -86.745 C -62.322 -98.381 -70.166 -118.121 -72.111 -129.623 C -77.616 -161.526 -70.661 -181.266 -62.85 -200.052 C -49.106 -232.879 -64.762 -245.041 -54.018 -238.285 C -40.703 -227.376 -42.746 -202.359 -43.801 -186.542 C -44.459 -173.787 -45.35 -159.187 -43.471 -143.993 C -39.746 -115.617 -22.477 -84.964 -7.746 -63.772 C 9.756 -38.067 3.395 -11.831 0 0 "/>
<path transform="matrix(1,0,0,-1,407.0643,242.72303)" d="M 0 0 C 0 0 4.417 -21.093 -14.205 -75.671 C -63.146 -218.081 30.256 -231.626 56.886 -265.241 C 56.886 -265.241 67.103 -250.677 24.687 -204.274 C 9.262 -187.265 -4.646 -149.76 7.482 -96.334 C 25.048 -19.015 0 0 0 0 "/>
<path transform="matrix(1,0,0,-1,314.5693,149.21192)" d="M 0 0 C -2.274 8.438 -2.933 15.919 -2.34 22.642 C -.132 56.161 30.288 69.74 37.934 74.782 C 37.934 74.782 51.545 84.175 53.26 93.601 C 53.26 93.601 67.267 58.304 35.166 38.133 C 18.885 27.85 7.811 15.919 0 0 "/>
<path transform="matrix(1,0,0,-1,391.2655,116.82764)" d="M 0 0 C 1.746 -3.493 14.402 -21.783 -37.144 -64.366 C -88.722 -107.012 -72.639 -137.334 -72.639 -137.334 C -72.639 -137.334 -127.711 -106.814 -64.366 -53.95 C -.956 -1.154 -13.974 9.559 -13.974 9.559 C -13.974 9.559 -4.911 9.988 0 0 "/>
<path transform="matrix(1,0,0,-1,458.3306,133.06964)" d="M 0 0 C 8.866 -1.251 14.633 -29.067 35.231 -35.035 C 50.36 -39.45 66.574 -37.115 70.167 -46.272 C 63.147 -49.93 68.717 -62.125 75.605 -60.081 C 81.405 -43.964 84.306 18.92 0 0 M 27.85 -12.556 C 28.508 -10.546 29.662 -12.132 31.837 -10.743 C 34.309 -8.436 36.748 -4.746 40.637 -3.493 C 43.538 -2.706 47.327 -3.134 49.932 -4.052 C 51.743 -4.449 50.59 -8.932 49.337 -9.99 C 46.504 -12.132 38.363 -8.798 38.363 -15.029 C 38.659 -25.08 51.973 -14.666 59.028 -15.029 C 62.389 -39.685 21.719 -32.829 27.85 -12.556 "/>
</g>
</g>
</g>
</svg>
